<svg width="151" height="50" viewBox="0 0 151 50" fill="none" xmlns="http://www.w3.org/2000/svg">
<g clip-path="url(#clip0_2681_1877)">
<path d="M15.8805 42.6189C15.8825 43.5114 15.7236 44.3971 15.4116 45.2338C15.1246 46.0309 14.6663 46.756 14.0688 47.3581C13.6314 47.8137 13.1357 48.2098 12.5943 48.5362C12.0568 48.8532 11.483 49.1047 10.8854 49.2855C10.2316 49.4822 9.56089 49.6179 8.88193 49.6911C8.09817 49.7756 7.31027 49.8162 6.52195 49.8128C5.57253 49.8128 4.59599 49.8025 3.59232 49.7819C2.58865 49.7625 1.55786 49.7374 0.492188 49.7123V35.5235C1.55011 35.4964 2.58349 35.4726 3.59232 35.452C4.60116 35.4314 5.5777 35.4211 6.52195 35.4211C7.31027 35.4176 8.09817 35.4582 8.88193 35.5428C9.56166 35.6162 10.2326 35.7552 10.8854 35.958C11.4822 36.146 12.0556 36.4013 12.5943 36.7189C13.1318 37.0432 13.6271 37.4324 14.0688 37.8777C14.6659 38.4801 15.1242 39.2051 15.4116 40.002C15.7236 40.8393 15.8824 41.7257 15.8805 42.6189ZM12.7474 42.6073C12.7474 41.3352 12.347 40.2988 11.5461 39.498C11.243 39.1889 10.8883 38.9347 10.4979 38.7467C10.1186 38.5674 9.71923 38.4338 9.30819 38.3489C8.86566 38.2593 8.41665 38.205 7.96545 38.1867C7.49139 38.1673 6.99666 38.1577 6.48126 38.1577H5.01645C4.54109 38.1577 4.03926 38.1641 3.51094 38.177V47.0395C4.03926 47.0524 4.54109 47.062 5.01645 47.0685C5.4918 47.0749 5.98007 47.0788 6.48126 47.08C6.99666 47.08 7.49074 47.0685 7.96545 47.0491C8.41739 47.0318 8.86681 46.9737 9.30819 46.8753C9.71854 46.7843 10.1175 46.6483 10.4979 46.4698C10.8888 46.2817 11.2436 46.0268 11.5461 45.7166C12.347 44.9196 12.7474 43.8832 12.7474 42.6073Z" fill="#0000FF"/>
<path d="M35.233 42.6188C35.2414 43.6046 35.0435 44.5814 34.6517 45.4867C34.2605 46.3828 33.6811 47.1849 32.9525 47.8389C32.1616 48.539 31.2397 49.0765 30.2399 49.4206C29.0799 49.8227 27.8581 50.0188 26.6301 50C25.4015 50.0188 24.1791 49.8227 23.0185 49.4206C22.0186 49.0765 21.0968 48.539 20.3059 47.8389C19.5779 47.1848 18.9991 46.3827 18.6086 45.4867C18.2186 44.5802 18.0176 43.6041 18.0176 42.6178C18.0176 41.6315 18.2186 40.6555 18.6086 39.7489C18.9991 38.8529 19.5779 38.0508 20.3059 37.3967C21.0968 36.6966 22.0186 36.1591 23.0185 35.815C24.1791 35.4129 25.4015 35.2168 26.6301 35.2356C27.8581 35.2168 29.0799 35.4129 30.2399 35.815C31.2397 36.1591 32.1616 36.6966 32.9525 37.3967C33.6811 38.0507 34.2605 38.8528 34.6517 39.7489C35.0435 40.6549 35.2415 41.6323 35.233 42.6188ZM26.6379 37.9336C25.8903 37.9261 25.1464 38.0389 24.4349 38.2677C23.7992 38.4695 23.2076 38.7893 22.691 39.2101C22.2056 39.6129 21.8169 40.1191 21.5537 40.6914C21.2853 41.3001 21.1468 41.9577 21.1468 42.6226C21.1468 43.2875 21.2853 43.9452 21.5537 44.5539C21.8181 45.1227 22.2067 45.6255 22.691 46.0255C23.2076 46.4463 23.7992 46.7661 24.4349 46.9679C25.8696 47.4134 27.4062 47.4134 28.8409 46.9679C29.4715 46.7665 30.0575 46.4466 30.5673 46.0255C31.0459 45.6228 31.4302 45.1205 31.6931 44.5539C31.9614 43.9452 32.0999 43.2875 32.0999 42.6226C32.0999 41.9577 31.9614 41.3001 31.6931 40.6914C31.4314 40.1213 31.0471 39.6156 30.5673 39.2101C30.0575 38.7891 29.4715 38.4692 28.8409 38.2677C28.1294 38.0389 27.3855 37.9261 26.6379 37.9336Z" fill="#0000FF"/>
<path d="M52.1404 37.2845L50.5904 39.5769C49.954 38.9907 49.1919 38.5568 48.3622 38.308C47.5813 38.0668 46.7693 37.9406 45.9518 37.9334C45.2023 37.9257 44.4564 38.0385 43.7429 38.2675C43.1076 38.47 42.516 38.7897 41.9991 39.2099C41.5131 39.6126 41.1238 40.1188 40.8598 40.6912C40.5915 41.2999 40.4529 41.9575 40.4529 42.6224C40.4529 43.2873 40.5915 43.945 40.8598 44.5537C41.125 45.1226 41.5142 45.6254 41.9991 46.0253C42.516 46.4455 43.1076 46.7652 43.7429 46.9677C44.4576 47.1977 45.2048 47.3112 45.9557 47.3038C46.8189 47.3168 47.6772 47.1722 48.4881 46.877C49.3009 46.5601 50.0648 46.1303 50.757 45.6004L52.2625 47.831C51.4231 48.5483 50.4518 49.096 49.4026 49.4436C47.109 50.1951 44.6331 50.1876 42.344 49.4224C41.3449 49.0767 40.4233 48.5394 39.6314 47.8407C38.8988 47.1881 38.3159 46.3858 37.9224 45.4884C37.5313 44.5822 37.3296 43.606 37.3296 42.6195C37.3296 41.633 37.5313 40.6569 37.9224 39.7507C38.3159 38.8533 38.8988 38.051 39.6314 37.3984C40.4233 36.6997 41.3449 36.1624 42.344 35.8167C44.6577 35.0549 47.1541 35.0441 49.4743 35.7858C50.4479 36.1178 51.3517 36.6258 52.1404 37.2845Z" fill="#0000FF"/>
<path d="M70.7781 49.716H68.9878C68.703 49.716 68.4608 49.716 68.2651 49.6948C68.0901 49.6864 67.9178 49.6485 67.7555 49.5827C67.6117 49.5205 67.4834 49.4275 67.3796 49.3104C67.2498 49.1557 67.1404 48.985 67.0541 48.8025L66.1996 47.1397H57.4514L56.1494 49.716H52.9155L60.381 35.3784H63.3107L70.7781 49.716ZM64.8375 44.463L61.8265 38.5012L58.8155 44.463H64.8375Z" fill="#0000FF"/>
<path d="M75.8332 45.4769V49.7257H72.8184V35.5233C73.5779 35.4962 74.413 35.4724 75.3237 35.4518C76.2343 35.4312 77.1172 35.4209 77.9723 35.4209C80.6074 35.4209 82.6096 35.8026 83.9788 36.5661C85.3481 37.3296 86.034 38.6042 86.0366 40.39C86.0366 41.3904 85.8389 42.2182 85.4437 42.8736C85.0463 43.5328 84.4807 44.0753 83.8045 44.4456C83.0295 44.8615 82.1875 45.1393 81.3166 45.2664C80.275 45.4279 79.2221 45.506 78.168 45.5001C77.8541 45.5001 77.4782 45.5001 77.0365 45.4885C76.5947 45.4769 76.1956 45.4769 75.8332 45.4769ZM75.8332 42.7384C76.1994 42.7384 76.5715 42.7384 76.9512 42.75C77.331 42.7616 77.6759 42.7596 77.9898 42.7596C78.4374 42.7596 78.8733 42.7596 79.3015 42.75C79.7029 42.7452 80.1036 42.7143 80.5009 42.6573C80.8519 42.6089 81.1968 42.5235 81.5297 42.4024C81.8277 42.2969 82.0984 42.1267 82.3222 41.9041C82.5074 41.708 82.6557 41.4804 82.7601 41.232C82.8678 40.9531 82.9198 40.6559 82.9132 40.3572C82.9115 40.1167 82.8662 39.8786 82.7795 39.6542C82.7045 39.4379 82.5836 39.2402 82.4249 39.0748C82.2191 38.87 81.9774 38.7044 81.7119 38.5862C81.4097 38.4549 81.092 38.3628 80.7663 38.312C80.3623 38.246 79.9547 38.2047 79.5457 38.1884C79.091 38.1691 78.5743 38.1594 77.9956 38.1594H76.957C76.5695 38.1594 76.2053 38.1594 75.8391 38.1787L75.8332 42.7384Z" fill="#0000FF"/>
<path d="M105.101 42.619C105.109 43.6048 104.911 44.5816 104.519 45.4869C104.129 46.3829 103.55 47.185 102.822 47.8391C102.031 48.5392 101.109 49.0767 100.109 49.4208C97.7644 50.1966 95.231 50.1994 92.8842 49.4285C91.8844 49.0845 90.9625 48.547 90.1716 47.8469C89.443 47.1933 88.8641 46.391 88.4743 45.4946C88.0844 44.5881 87.8833 43.612 87.8833 42.6257C87.8833 41.6394 88.0844 40.6634 88.4743 39.7569C88.8631 38.8577 89.4421 38.0527 90.1716 37.3969C90.9625 36.6968 91.8844 36.1593 92.8842 35.8152C95.229 35.0427 97.7608 35.0427 100.106 35.8152C101.105 36.1593 102.027 36.6968 102.818 37.3969C103.544 38.0515 104.121 38.8536 104.51 39.7491C104.905 40.6544 105.106 41.6318 105.101 42.619ZM96.5056 37.9338C95.758 37.9261 95.014 38.039 94.3025 38.2679C93.6669 38.4697 93.0752 38.7895 92.5587 39.2103C92.0732 39.6131 91.6846 40.1193 91.4213 40.6916C91.153 41.3003 91.0145 41.9579 91.0145 42.6228C91.0145 43.2877 91.153 43.9454 91.4213 44.5541C91.6858 45.1229 92.0744 45.6257 92.5587 46.0257C93.0752 46.4465 93.6669 46.7663 94.3025 46.9681C95.7372 47.4136 97.2739 47.4136 98.7086 46.9681C99.3391 46.7667 99.9251 46.4468 100.435 46.0257C100.914 45.623 101.298 45.1207 101.561 44.5541C101.829 43.9454 101.968 43.2877 101.968 42.6228C101.968 41.9579 101.829 41.3003 101.561 40.6916C101.299 40.1215 100.915 39.6158 100.435 39.2103C99.9251 38.7893 99.3391 38.4694 98.7086 38.2679C97.9971 38.0391 97.2532 37.9263 96.5056 37.9338Z" fill="#0000FF"/>
<path d="M117.673 38.6136C117.279 38.4295 116.871 38.2771 116.453 38.1578C116.039 38.0375 115.617 37.9427 115.191 37.8739C114.801 37.8086 114.407 37.7744 114.011 37.7716C113.215 37.7455 112.421 37.8801 111.679 38.1675C111.068 38.4301 110.764 38.8202 110.764 39.3262C110.764 39.7588 111.001 40.0968 111.475 40.3401C112.045 40.6186 112.644 40.8324 113.262 40.9774C113.978 41.1603 114.754 41.3399 115.587 41.5163C116.386 41.6804 117.165 41.9284 117.912 42.2559C118.588 42.544 119.196 42.9688 119.698 43.5035C120.171 44.0185 120.408 44.6944 120.409 45.5313C120.421 46.1932 120.241 46.8443 119.89 47.4066C119.526 47.9727 119.039 48.4505 118.466 48.8048C117.816 49.2104 117.105 49.5084 116.36 49.6874C115.527 49.9001 114.67 50.0078 113.81 50.0079C113.235 50.0044 112.66 49.9599 112.091 49.8747C111.466 49.7885 110.847 49.6595 110.239 49.4884C109.626 49.3136 109.025 49.1001 108.439 48.8492C107.883 48.6138 107.352 48.3253 106.852 47.9879L108.402 45.6955C108.777 45.9801 109.179 46.2278 109.601 46.4351C110.057 46.6624 110.53 46.8523 111.016 47.0029C111.515 47.1599 112.025 47.2787 112.543 47.3583C113.05 47.4383 113.563 47.479 114.077 47.4799C114.452 47.4794 114.826 47.4523 115.197 47.3988C115.55 47.3524 115.895 47.2602 116.224 47.1246C116.507 47.012 116.763 46.8431 116.978 46.6283C117.075 46.5289 117.151 46.4112 117.201 46.2822C117.252 46.1532 117.276 46.0155 117.272 45.877C117.272 45.4058 117.035 45.0408 116.559 44.782C115.993 44.4929 115.391 44.2786 114.769 44.1447C114.051 43.9747 113.276 43.8054 112.444 43.6368C111.649 43.4794 110.871 43.2486 110.119 42.9473C109.445 42.6872 108.834 42.2861 108.328 41.7712C107.853 41.2781 107.616 40.6189 107.617 39.7936C107.612 39.1513 107.786 38.5203 108.119 37.9705C108.469 37.3987 108.936 36.9076 109.491 36.5298C110.113 36.1039 110.803 35.7853 111.531 35.5873C112.356 35.3574 113.209 35.2443 114.066 35.2513C114.594 35.2549 115.121 35.2962 115.643 35.3749C116.209 35.4562 116.769 35.571 117.321 35.7186C117.861 35.8623 118.391 36.0417 118.908 36.2555C119.376 36.4483 119.825 36.6829 120.25 36.9566L118.7 39.247C118.383 38.9983 118.038 38.7858 117.673 38.6136Z" fill="#0000FF"/>
<path d="M135.771 38.2581H130.345V49.7162H127.327V38.2581H121.901V35.5234H135.776L135.771 38.2581Z" fill="#0000FF"/>
<path d="M150.237 35.5234V38.26H140.878V41.0989H149.462V43.8278H140.876V46.9719H150.498V49.7104H138.902C138.76 49.7207 138.617 49.7005 138.483 49.6512C138.349 49.6019 138.228 49.5246 138.127 49.4246C137.946 49.2257 137.852 48.9642 137.863 48.6965V35.5234H150.237Z" fill="#0000FF"/>
<path d="M86.9707 21.5506H59.6004C58.9964 21.5506 58.4171 21.3116 57.9899 20.8861C57.5626 20.4606 57.3223 19.8834 57.3218 19.2814C57.3223 18.6794 57.5626 18.1022 57.9899 17.6767C58.4171 17.2512 58.9964 17.0122 59.6004 17.0122H86.9707C87.5745 17.0122 88.1536 17.2513 88.5805 17.6768C89.0075 18.1024 89.2474 18.6796 89.2474 19.2814C89.2474 19.8833 89.0075 20.4604 88.5805 20.886C88.1536 21.3116 87.5745 21.5506 86.9707 21.5506Z" fill="#0000FF"/>
<path d="M98.9194 13.0438H71.5491C70.9453 13.0438 70.3662 12.8047 69.9393 12.3792C69.5123 11.9536 69.2725 11.3764 69.2725 10.7746C69.2725 10.1728 69.5123 9.59557 69.9393 9.17001C70.3662 8.74445 70.9453 8.50537 71.5491 8.50537H98.9194C99.5232 8.50537 100.102 8.74445 100.529 9.17001C100.956 9.59557 101.196 10.1728 101.196 10.7746C101.196 11.3764 100.956 11.9536 100.529 12.3792C100.102 12.8047 99.5232 13.0438 98.9194 13.0438Z" fill="#0000FF"/>
<path d="M91.3979 4.53843H64.0296C63.4256 4.53843 62.8463 4.29942 62.419 3.87391C61.9918 3.44841 61.7515 2.87123 61.751 2.26922C61.7515 1.6672 61.9918 1.09003 62.419 0.664521C62.8463 0.239016 63.4256 -2.17651e-07 64.0296 0H91.3979C92.0019 -2.17651e-07 92.5812 0.239016 93.0085 0.664521C93.4357 1.09003 93.676 1.6672 93.6765 2.26922C93.676 2.87123 93.4357 3.44841 93.0085 3.87391C92.5812 4.29942 92.0019 4.53843 91.3979 4.53843Z" fill="#0000FF"/>
</g>
<defs>
<clipPath id="clip0_2681_1877">
<rect width="150" height="50" fill="white" transform="translate(0.5)"/>
</clipPath>
</defs>
</svg>
