<svg width="137" height="34" viewBox="0 0 137 34" fill="none" xmlns="http://www.w3.org/2000/svg">
<path d="M17.1977 12.7017C20.6044 12.7017 23.3661 9.97024 23.3661 6.60084C23.3661 3.23144 20.6044 0.5 17.1977 0.5C13.791 0.5 11.0293 3.23144 11.0293 6.60084C11.0293 9.97024 13.791 12.7017 17.1977 12.7017Z" fill="#F97316"/>
<path d="M17.1977 33.5C26.6952 33.5 34.3945 25.8906 34.3945 16.5045C34.3945 10.2891 31.0177 4.8538 25.9793 1.89027V7.86724C25.9793 12.6176 22.0464 16.5036 17.2397 16.5036C12.4331 16.5036 8.50025 12.6166 8.50025 7.86724V1.84035C3.41412 4.79279 0 10.254 0 16.5045C0 25.8906 7.70022 33.5 17.1977 33.5Z" fill="#145DFF"/>
<path d="M17.1977 26.0588C20.6044 26.0588 23.3661 23.3274 23.3661 19.958C23.3661 16.5886 20.6044 13.8572 17.1977 13.8572C13.791 13.8572 11.0293 16.5886 11.0293 19.958C11.0293 23.3274 13.791 26.0588 17.1977 26.0588Z" fill="white"/>
<path d="M42.8578 26.6675V8.87359H46.1989V23.8713H55.6056V26.6675H42.8578Z" fill="#003FE3"/>
<path d="M65.7285 26.9217C63.2612 26.9217 61.3251 26.2353 59.92 24.8627C58.5322 23.49 57.8382 21.5072 57.8382 18.9144V8.87359H61.1794V18.7873C61.1794 20.6175 61.5735 21.9479 62.3617 22.7782C63.167 23.6086 64.2978 24.0238 65.7542 24.0238C67.2107 24.0238 68.333 23.6086 69.1211 22.7782C69.9093 21.9479 70.3034 20.6175 70.3034 18.7873V8.87359H73.5932V18.9144C73.5932 21.5072 72.8907 23.49 71.4856 24.8627C70.0978 26.2353 68.1787 26.9217 65.7285 26.9217Z" fill="#003FE3"/>
<path d="M78.2724 26.6675V8.87359H81.0225L88.8871 21.8631H87.4478L95.1839 8.87359H97.9339L97.9596 26.6675H94.7984L94.7727 13.7796H95.4409L88.8614 24.6339H87.3707L80.6883 13.7796H81.4594V26.6675H78.2724Z" fill="#003FE3"/>
<path d="M105.903 16.2708H114.847V18.9907H105.903V16.2708ZM106.16 23.8967H116.312V26.6675H102.819V8.87359H115.953V11.6444H106.16V23.8967Z" fill="#003FE3"/>
<path d="M117.493 26.6675L125.589 8.87359H128.878L137 26.6675H133.505L126.54 10.6276H127.876L120.937 26.6675H117.493ZM121.219 22.5495L122.119 19.9566H131.834L132.734 22.5495H121.219Z" fill="#003FE3"/>
</svg>
