<svg width="51" height="48" viewBox="0 0 51 48" fill="none" xmlns="http://www.w3.org/2000/svg">
<path d="M25.5007 17.7479C30.4531 17.7479 34.4678 13.7749 34.4678 8.87395C34.4678 3.973 30.4531 0 25.5007 0C20.5483 0 16.5335 3.973 16.5335 8.87395C16.5335 13.7749 20.5483 17.7479 25.5007 17.7479Z" fill="#F97316"/>
<path d="M25.5007 48C39.3074 48 50.5 36.9318 50.5 23.2793C50.5 14.2387 45.5912 6.3328 38.2666 2.02221V10.716C38.2666 17.6256 32.5494 23.278 25.5618 23.278C18.5742 23.278 12.857 17.6242 12.857 10.716V1.9496C5.46318 6.24405 0.5 14.1876 0.5 23.2793C0.5 36.9318 11.6926 48 25.4993 48H25.5007Z" fill="white"/>
<path d="M25.5007 37.1765C30.4531 37.1765 34.4678 33.2035 34.4678 28.3026C34.4678 23.4016 30.4531 19.4286 25.5007 19.4286C20.5483 19.4286 16.5335 23.4016 16.5335 28.3026C16.5335 33.2035 20.5483 37.1765 25.5007 37.1765Z" fill="#F97316"/>
</svg>
